<svg xmlns="http://www.w3.org/2000/svg" xmlns:xlink="http://www.w3.org/1999/xlink" version="1.1" x="0px" y="0px" viewBox="0 0 33 41.25" enable-background="new 0 0 33 33" xml:space="preserve"><path d="M25.496,21.547c-1.303,0-2.363,1.061-2.363,2.364c0,0.619,0.244,1.205,0.68,1.645l-0.241,1.663  c-0.04,0.271,0.036,0.542,0.21,0.742s0.43,0.315,0.703,0.315h2.025c0.273,0,0.53-0.115,0.703-0.316  c0.174-0.201,0.25-0.472,0.209-0.74l-0.242-1.664c0.436-0.438,0.68-1.023,0.68-1.645C27.859,22.608,26.799,21.547,25.496,21.547z   M26.361,24.99l-0.219,0.174l0.368,2.195h-1.979l0.316-2.195l-0.217-0.172c-0.336-0.27-0.528-0.662-0.528-1.08  c0-0.77,0.625-1.395,1.394-1.395c0.768,0,1.393,0.625,1.393,1.395C26.889,24.332,26.697,24.724,26.361,24.99z"/><path d="M30.514,19.25v-2.56c0-1.256-0.773-2.203-1.965-2.555V8.473v-0.97V5.606c0-1.535-1.25-2.783-2.785-2.783H3.282  C1.748,2.823,0.5,4.071,0.5,5.606v1.897v0.97v10.762c0,1.534,1.248,2.782,2.782,2.782h15.21v5.888c0,1.253,1.02,2.272,2.271,2.272  h9.464c1.253,0,2.272-1.02,2.272-2.272v-6.413C32.5,20.336,31.631,19.391,30.514,19.25z M29.543,16.69v2.531h-8.094V16.69  c0-1.203,1.031-1.742,2.052-1.742h3.995C28.516,14.948,29.543,15.487,29.543,16.69z M1.47,5.606c0-1,0.813-1.813,1.813-1.813h22.481  c1.001,0,1.814,0.813,1.814,1.813v1.897H1.47V5.606z M18.537,21.046H3.282c-0.999,0-1.813-0.813-1.813-1.812V8.473h26.108v5.512  c-0.027,0-0.054-0.006-0.082-0.006h-3.995c-1.778,0-3.021,1.115-3.021,2.711v2.56C19.51,19.373,18.727,20.1,18.537,21.046z   M31.53,27.905c0,0.718-0.585,1.302-1.303,1.302h-9.464c-0.717,0-1.302-0.584-1.302-1.302v-6.413c0-0.718,0.585-1.302,1.304-1.302  h9.463c0.718,0,1.302,0.584,1.302,1.302V27.905z"/><path d="M11.191,13.466H4.857c-0.818,0-1.486,0.667-1.486,1.485v3.001c0,0.819,0.668,1.484,1.486,1.484h6.334  c0.818,0,1.484-0.665,1.484-1.484v-3.001C12.676,14.133,12.01,13.466,11.191,13.466z M11.705,17.953c0,0.284-0.23,0.515-0.514,0.515  H4.857c-0.285,0-0.517-0.23-0.517-0.515v-3.001c0-0.284,0.231-0.516,0.517-0.516h6.334c0.283,0,0.514,0.231,0.514,0.516V17.953z"/><text x="0" y="48" fill="#000000" font-size="5px" font-weight="bold" font-family="'Helvetica Neue', Helvetica, Arial-Unicode, Arial, Sans-serif">Created by Minh Do</text><text x="0" y="53" fill="#000000" font-size="5px" font-weight="bold" font-family="'Helvetica Neue', Helvetica, Arial-Unicode, Arial, Sans-serif">from the Noun Project</text></svg>